FacadeStencil-Bold.ufo
<glyph name="numbersign" format="2">
  <advance width="750"/>
  <unicode hex="0023"/>
  <outline>
    <contour>
      <point x="141" y="396" type="line"/>
      <point x="286" y="396" type="line"/>
      <point x="370" y="900" type="line"/>
      <point x="226" y="900" type="line"/>
      <point x="191" y="690" type="line"/>
      <point x="89" y="690" type="line"/>
      <point x="67" y="558" type="line"/>
      <point x="169" y="558" type="line"/>
    </contour>
    <contour>
      <point x="373" y="558" type="line"/>
      <point x="715" y="558" type="line"/>
      <point x="737" y="690" type="line"/>
      <point x="637" y="690" type="line"/>
      <point x="672" y="900" type="line"/>
      <point x="528" y="900" type="line"/>
      <point x="493" y="690" type="line"/>
      <point x="394" y="690" type="line"/>
    </contour>
    <contour>
      <point x="76" y="0" type="line"/>
      <point x="220" y="0" type="line"/>
      <point x="255" y="210" type="line"/>
      <point x="354" y="210" type="line"/>
      <point x="375" y="342" type="line"/>
      <point x="33" y="342" type="line"/>
      <point x="11" y="210" type="line"/>
      <point x="111" y="210" type="line"/>
    </contour>
    <contour>
      <point x="378" y="0" type="line"/>
      <point x="522" y="0" type="line"/>
      <point x="557" y="210" type="line"/>
      <point x="661" y="210" type="line"/>
      <point x="683" y="342" type="line"/>
      <point x="579" y="342" type="line"/>
      <point x="606" y="504" type="line"/>
      <point x="462" y="504" type="line"/>
    </contour>
  </outline>
</glyph>
<glyph name="dollar" format="2">
  <advance width="750"/>
  <unicode hex="0024"/>
  <outline>
    <contour>
      <point x="376" y="-20" type="curve" smooth="yes"/>
      <point x="557" y="-20"/>
      <point x="670" y="100"/>
      <point x="670" y="256" type="curve" smooth="yes"/>
      <point x="670" y="415"/>
      <point x="552" y="484"/>
      <point x="481" y="519" type="curve" smooth="yes"/>
      <point x="420" y="549" type="line"/>
      <point x="420" y="356" type="line"/>
      <point x="454" y="337"/>
      <point x="500" y="305"/>
      <point x="500" y="245" type="curve" smooth="yes"/>
      <point x="500" y="187"/>
      <point x="455" y="142"/>
      <point x="382" y="142" type="curve" smooth="yes"/>
      <point x="293" y="142"/>
      <point x="199" y="202"/>
      <point x="152" y="284" type="curve"/>
      <point x="103" y="84" type="line"/>
      <point x="162" y="26"/>
      <point x="266" y="-20"/>
    </contour>
    <contour>
      <point x="336" y="-120" type="line"/>
      <point x="444" y="-120" type="line"/>
      <point x="444" y="60" type="line"/>
      <point x="336" y="60" type="line"/>
    </contour>
    <contour>
      <point x="360" y="387" type="line"/>
      <point x="360" y="579" type="line"/>
      <point x="313" y="604"/>
      <point x="286" y="630"/>
      <point x="286" y="673" type="curve" smooth="yes"/>
      <point x="286" y="722"/>
      <point x="322" y="760"/>
      <point x="388" y="760" type="curve" smooth="yes"/>
      <point x="461" y="760"/>
      <point x="540" y="714"/>
      <point x="594" y="645" type="curve"/>
      <point x="640" y="840" type="line"/>
      <point x="588" y="879"/>
      <point x="502" y="920"/>
      <point x="396" y="920" type="curve" smooth="yes"/>
      <point x="225" y="920"/>
      <point x="116" y="817"/>
      <point x="116" y="666" type="curve" smooth="yes"/>
      <point x="116" y="527"/>
      <point x="206" y="463"/>
      <point x="299" y="417" type="curve" smooth="yes"/>
    </contour>
    <contour>
      <point x="336" y="840" type="line"/>
      <point x="444" y="840" type="line"/>
      <point x="444" y="990" type="line"/>
      <point x="336" y="990" type="line"/>
    </contour>
  </outline>
</glyph>
<glyph name="ampersand" format="2">
  <advance width="800"/>
  <unicode hex="0026"/>
  <outline>
    <contour>
      <point x="586" y="0" type="line"/>
      <point x="792" y="0" type="line"/>
      <point x="693" y="135" type="line"/>
      <point x="727" y="170"/>
      <point x="753" y="210"/>
      <point x="773" y="255" type="curve"/>
      <point x="663" y="406" type="line"/>
      <point x="661" y="351"/>
      <point x="641" y="297"/>
      <point x="608" y="253" type="curve"/>
      <point x="330" y="633" type="line" smooth="yes"/>
      <point x="311" y="660"/>
      <point x="295" y="683"/>
      <point x="295" y="712" type="curve" smooth="yes"/>
      <point x="295" y="741"/>
      <point x="312" y="767"/>
      <point x="337" y="779" type="curve"/>
      <point x="337" y="916" type="line"/>
      <point x="229" y="904"/>
      <point x="136" y="817"/>
      <point x="136" y="700" type="curve" smooth="yes"/>
      <point x="136" y="635"/>
      <point x="165" y="587"/>
      <point x="200" y="538" type="curve" smooth="yes"/>
    </contour>
    <contour>
      <point x="360" y="-18" type="curve" smooth="yes"/>
      <point x="413" y="-18"/>
      <point x="467" y="-8"/>
      <point x="511" y="14" type="curve"/>
      <point x="420" y="139" type="line"/>
      <point x="411" y="134"/>
      <point x="397" y="132"/>
      <point x="380" y="132" type="curve" smooth="yes"/>
      <point x="272" y="132"/>
      <point x="213" y="202"/>
      <point x="213" y="285" type="curve" smooth="yes"/>
      <point x="213" y="326"/>
      <point x="228" y="357"/>
      <point x="247" y="380" type="curve"/>
      <point x="161" y="500" type="line"/>
      <point x="88" y="443"/>
      <point x="48" y="370"/>
      <point x="45" y="279" type="curve" smooth="yes"/>
      <point x="40" y="108"/>
      <point x="176" y="-18"/>
    </contour>
    <contour>
      <point x="483" y="517" type="line"/>
      <point x="534" y="547"/>
      <point x="606" y="603"/>
      <point x="606" y="701" type="curve" smooth="yes"/>
      <point x="606" y="814"/>
      <point x="510" y="902"/>
      <point x="401" y="916" type="curve"/>
      <point x="401" y="781" type="line"/>
      <point x="428" y="771"/>
      <point x="447" y="742"/>
      <point x="447" y="708" type="curve" smooth="yes"/>
      <point x="447" y="669"/>
      <point x="422" y="645"/>
      <point x="401" y="631" type="curve"/>
    </contour>
  </outline>
</glyph>
<glyph name="zero" format="2">
  <advance width="750"/>
  <unicode hex="0030"/>
  <outline>
    <contour>
      <point x="409" y="-19" type="line"/>
      <point x="616" y="1"/>
      <point x="708" y="233"/>
      <point x="708" y="450" type="curve" smooth="yes"/>
      <point x="708" y="667"/>
      <point x="616" y="899"/>
      <point x="409" y="919" type="curve"/>
      <point x="409" y="754" type="line"/>
      <point x="496" y="727"/>
      <point x="528" y="577"/>
      <point x="528" y="450" type="curve" smooth="yes"/>
      <point x="528" y="323"/>
      <point x="496" y="173"/>
      <point x="409" y="146" type="curve"/>
    </contour>
    <contour>
      <point x="341" y="-19" type="curve"/>
      <point x="341" y="146" type="line"/>
      <point x="255" y="173"/>
      <point x="222" y="323"/>
      <point x="222" y="450" type="curve" smooth="yes"/>
      <point x="222" y="577"/>
      <point x="255" y="727"/>
      <point x="341" y="754" type="curve"/>
      <point x="341" y="919" type="line"/>
      <point x="135" y="899"/>
      <point x="42" y="667"/>
      <point x="42" y="450" type="curve" smooth="yes"/>
      <point x="42" y="233"/>
      <point x="135" y="1"/>
    </contour>
  </outline>
</glyph>
<glyph name="six" format="2">
  <advance width="750"/>
  <unicode hex="0036"/>
  <outline>
    <contour>
      <point x="349" y="-19" type="curve"/>
      <point x="349" y="145" type="line"/>
      <point x="277" y="159"/>
      <point x="224" y="223"/>
      <point x="224" y="299" type="curve" smooth="yes"/>
      <point x="224" y="341"/>
      <point x="236" y="384"/>
      <point x="268" y="442" type="curve" smooth="yes"/>
      <point x="516" y="900" type="line"/>
      <point x="332" y="900" type="line"/>
      <point x="96" y="452" type="line" smooth="yes"/>
      <point x="69" y="400"/>
      <point x="54" y="350"/>
      <point x="54" y="294" type="curve" smooth="yes"/>
      <point x="54" y="128"/>
      <point x="181" y="-5"/>
    </contour>
    <contour>
      <point x="413" y="-19" type="line"/>
      <point x="581" y="-4"/>
      <point x="708" y="128"/>
      <point x="708" y="296" type="curve" smooth="yes"/>
      <point x="708" y="461"/>
      <point x="581" y="594"/>
      <point x="421" y="605" type="curve"/>
      <point x="337" y="450" type="line"/>
      <point x="351" y="454"/>
      <point x="366" y="456"/>
      <point x="381" y="456" type="curve" smooth="yes"/>
      <point x="470" y="456"/>
      <point x="538" y="385"/>
      <point x="538" y="299" type="curve" smooth="yes"/>
      <point x="538" y="223"/>
      <point x="485" y="159"/>
      <point x="413" y="145" type="curve"/>
    </contour>
  </outline>
</glyph>
<glyph name="at" format="2">
  <advance width="1260"/>
  <unicode hex="0040"/>
  <outline>
    <contour>
      <point x="619" y="-191" type="curve"/>
      <point x="619" y="-59" type="line"/>
      <point x="386" y="-44"/>
      <point x="214" y="133"/>
      <point x="214" y="358" type="curve" smooth="yes"/>
      <point x="214" y="580"/>
      <point x="380" y="760"/>
      <point x="619" y="778" type="curve"/>
      <point x="619" y="911" type="line"/>
      <point x="307" y="895"/>
      <point x="68" y="653"/>
      <point x="68" y="357" type="curve" smooth="yes"/>
      <point x="68" y="59"/>
      <point x="312" y="-178"/>
    </contour>
    <contour>
      <point x="683" y="-191" type="line"/>
      <point x="796" y="-185"/>
      <point x="898" y="-148"/>
      <point x="984" y="-86" type="curve"/>
      <point x="951" y="40" type="line"/>
      <point x="874" y="-19"/>
      <point x="782" y="-54"/>
      <point x="683" y="-59" type="curve"/>
    </contour>
    <contour>
      <point x="601" y="76" type="curve" smooth="yes"/>
      <point x="637" y="76"/>
      <point x="671" y="83"/>
      <point x="702" y="95" type="curve"/>
      <point x="702" y="236" type="line"/>
      <point x="681" y="222"/>
      <point x="655" y="214"/>
      <point x="627" y="214" type="curve" smooth="yes"/>
      <point x="548" y="214"/>
      <point x="485" y="279"/>
      <point x="485" y="360" type="curve" smooth="yes"/>
      <point x="485" y="441"/>
      <point x="548" y="506"/>
      <point x="627" y="506" type="curve" smooth="yes"/>
      <point x="655" y="506"/>
      <point x="681" y="498"/>
      <point x="702" y="484" type="curve"/>
      <point x="702" y="625" type="line"/>
      <point x="671" y="637"/>
      <point x="637" y="644"/>
      <point x="601" y="644" type="curve" smooth="yes"/>
      <point x="449" y="644"/>
      <point x="327" y="516"/>
      <point x="327" y="360" type="curve" smooth="yes"/>
      <point x="327" y="204"/>
      <point x="449" y="76"/>
    </contour>
    <contour>
      <point x="945" y="76" type="curve" smooth="yes"/>
      <point x="1081" y="76"/>
      <point x="1204" y="196"/>
      <point x="1204" y="405" type="curve" smooth="yes"/>
      <point x="1204" y="688"/>
      <point x="975" y="899"/>
      <point x="683" y="911" type="curve"/>
      <point x="683" y="780" type="line"/>
      <point x="914" y="771"/>
      <point x="1058" y="609"/>
      <point x="1058" y="389" type="curve" smooth="yes"/>
      <point x="1058" y="269"/>
      <point x="1015" y="191"/>
      <point x="956" y="191" type="curve" smooth="yes"/>
      <point x="925" y="191"/>
      <point x="900" y="212"/>
      <point x="900" y="267" type="curve" smooth="yes"/>
      <point x="900" y="630" type="line"/>
      <point x="763" y="630" type="line"/>
      <point x="763" y="267" type="line" smooth="yes"/>
      <point x="763" y="142"/>
      <point x="842" y="76"/>
    </contour>
  </outline>
</glyph>
<glyph name="C" format="2">
  <advance width="870"/>
  <unicode hex="0043"/>
  <anchor x="530" y="0" name="bottom"/>
  <anchor x="530" y="900" name="top"/>
  <outline>
    <contour>
      <point x="496" y="-17" type="curve"/>
      <point x="496" y="158" type="line"/>
      <point x="353" y="176"/>
      <point x="248" y="299"/>
      <point x="248" y="450" type="curve" smooth="yes"/>
      <point x="248" y="601"/>
      <point x="353" y="724"/>
      <point x="496" y="742" type="curve"/>
      <point x="496" y="917" type="line"/>
      <point x="249" y="902"/>
      <point x="54" y="699"/>
      <point x="54" y="450" type="curve" smooth="yes"/>
      <point x="54" y="201"/>
      <point x="249" y="-2"/>
    </contour>
    <contour>
      <point x="564" y="-17" type="line"/>
      <point x="669" y="-11"/>
      <point x="762" y="30"/>
      <point x="839" y="93" type="curve"/>
      <point x="788" y="303" type="line"/>
      <point x="742" y="226"/>
      <point x="663" y="165"/>
      <point x="564" y="157" type="curve"/>
    </contour>
    <contour>
      <point x="788" y="597" type="curve"/>
      <point x="839" y="807" type="line"/>
      <point x="763" y="871"/>
      <point x="668" y="911"/>
      <point x="564" y="917" type="curve"/>
      <point x="564" y="743" type="line"/>
      <point x="664" y="735"/>
      <point x="742" y="674"/>
    </contour>
  </outline>
</glyph>
<glyph name="F" format="2">
  <advance width="600"/>
  <unicode hex="0046"/>
  <outline>
    <contour>
      <point x="96" y="0" type="line"/>
      <point x="270" y="0" type="line"/>
      <point x="270" y="900" type="line"/>
      <point x="96" y="900" type="line"/>
    </contour>
    <contour>
      <point x="330" y="456" type="line"/>
      <point x="546" y="456" type="line"/>
      <point x="546" y="606" type="line"/>
      <point x="330" y="606" type="line"/>
    </contour>
    <contour>
      <point x="330" y="750" type="line"/>
      <point x="576" y="750" type="line"/>
      <point x="576" y="900" type="line"/>
      <point x="330" y="900" type="line"/>
    </contour>
  </outline>
</glyph>
<glyph name="P" format="2">
  <advance width="740"/>
  <unicode hex="0050"/>
  <outline>
    <contour>
      <point x="330" y="289" type="line"/>
      <point x="368" y="289" type="line" smooth="yes"/>
      <point x="620" y="289"/>
      <point x="710" y="459"/>
      <point x="710" y="594" type="curve" smooth="yes"/>
      <point x="710" y="732"/>
      <point x="619" y="900"/>
      <point x="368" y="900" type="curve" smooth="yes"/>
      <point x="330" y="900" type="line"/>
      <point x="330" y="744" type="line"/>
      <point x="358" y="744" type="line" smooth="yes"/>
      <point x="487" y="744"/>
      <point x="530" y="664"/>
      <point x="530" y="594" type="curve" smooth="yes"/>
      <point x="530" y="522"/>
      <point x="486" y="445"/>
      <point x="358" y="445" type="curve" smooth="yes"/>
      <point x="330" y="445" type="line"/>
    </contour>
    <contour>
      <point x="96" y="0" type="line"/>
      <point x="270" y="0" type="line"/>
      <point x="270" y="900" type="line"/>
      <point x="96" y="900" type="line"/>
    </contour>
  </outline>
</glyph>
<glyph name="Q" format="2">
  <advance width="1060"/>
  <unicode hex="0051"/>
  <outline>
    <contour>
      <point x="530" y="-18" type="curve" smooth="yes"/>
      <point x="595" y="-18"/>
      <point x="657" y="-5"/>
      <point x="713" y="18" type="curve"/>
      <point x="592" y="163" type="line"/>
      <point x="572" y="158"/>
      <point x="551" y="156"/>
      <point x="530" y="156" type="curve" smooth="yes"/>
      <point x="368" y="156"/>
      <point x="242" y="287"/>
      <point x="242" y="450" type="curve" smooth="yes"/>
      <point x="242" y="602"/>
      <point x="352" y="727"/>
      <point x="496" y="742" type="curve"/>
      <point x="496" y="917" type="line"/>
      <point x="250" y="901"/>
      <point x="54" y="699"/>
      <point x="54" y="450" type="curve" smooth="yes"/>
      <point x="54" y="191"/>
      <point x="267" y="-18"/>
    </contour>
    <contour>
      <point x="823" y="-30" type="line"/>
      <point x="1023" y="-30" type="line"/>
      <point x="624" y="450" type="line"/>
      <point x="424" y="450" type="line"/>
    </contour>
    <contour>
      <point x="829" y="86" type="line"/>
      <point x="937" y="171"/>
      <point x="1006" y="303"/>
      <point x="1006" y="450" type="curve" smooth="yes"/>
      <point x="1006" y="699"/>
      <point x="809" y="902"/>
      <point x="564" y="917" type="curve"/>
      <point x="564" y="742" type="line"/>
      <point x="707" y="727"/>
      <point x="818" y="603"/>
      <point x="818" y="450" type="curve" smooth="yes"/>
      <point x="818" y="362"/>
      <point x="782" y="284"/>
      <point x="723" y="231" type="curve"/>
    </contour>
  </outline>
</glyph>
<glyph name="R" format="2">
  <advance width="800"/>
  <unicode hex="0052"/>
  <anchor x="439" y="0" name="bottom"/>
  <anchor x="325" y="900" name="top"/>
  <outline>
    <contour>
      <point x="589" y="0" type="line"/>
      <point x="786" y="0" type="line"/>
      <point x="490" y="492" type="line"/>
      <point x="333" y="492" type="line"/>
      <point x="333" y="342" type="line"/>
      <point x="374" y="342" type="line" smooth="yes"/>
      <point x="421" y="342"/>
      <point x="464" y="349"/>
      <point x="502" y="363" type="curve"/>
      <point x="337" y="432" type="line"/>
    </contour>
    <contour>
      <point x="99" y="0" type="line"/>
      <point x="273" y="0" type="line"/>
      <point x="273" y="900" type="line"/>
      <point x="99" y="900" type="line"/>
    </contour>
    <contour>
      <point x="604" y="423" type="line"/>
      <point x="656" y="472"/>
      <point x="685" y="539"/>
      <point x="685" y="616" type="curve" smooth="yes"/>
      <point x="685" y="769"/>
      <point x="570" y="900"/>
      <point x="374" y="900" type="curve" smooth="yes"/>
      <point x="333" y="900" type="line"/>
      <point x="333" y="738" type="line"/>
      <point x="370" y="738" type="line" smooth="yes"/>
      <point x="454" y="738"/>
      <point x="511" y="687"/>
      <point x="511" y="616" type="curve" smooth="yes"/>
      <point x="511" y="605"/>
      <point x="510" y="595"/>
      <point x="507" y="584" type="curve"/>
    </contour>
  </outline>
</glyph>
<glyph name="V" format="2">
  <advance width="770"/>
  <unicode hex="0056"/>
  <outline>
    <contour>
      <point x="384" y="-30" type="line"/>
      <point x="386" y="-30" type="line"/>
      <point x="477" y="193" type="line"/>
      <point x="196" y="900" type="line"/>
      <point x="6" y="900" type="line"/>
    </contour>
    <contour>
      <point x="510" y="277" type="line"/>
      <point x="764" y="900" type="line"/>
      <point x="583" y="900" type="line"/>
      <point x="423" y="496" type="line"/>
    </contour>
  </outline>
</glyph>
<glyph name="m" format="2">
  <advance width="1080"/>
  <unicode hex="006D"/>
  <anchor x="566" y="0" name="bottom"/>
  <anchor x="566" y="600" name="top"/>
  <outline>
    <contour>
      <point x="852" y="0" type="line"/>
      <point x="1026" y="0" type="line"/>
      <point x="1026" y="367" type="line" smooth="yes"/>
      <point x="1026" y="528"/>
      <point x="908" y="620"/>
      <point x="780" y="620" type="curve" smooth="yes"/>
      <point x="713" y="620"/>
      <point x="652" y="599"/>
      <point x="606" y="560" type="curve"/>
      <point x="601" y="601" type="line"/>
      <point x="645" y="558"/>
      <point x="678" y="498"/>
      <point x="689" y="425" type="curve"/>
      <point x="660" y="426" type="line"/>
      <point x="681" y="451"/>
      <point x="711" y="464"/>
      <point x="743" y="464" type="curve" smooth="yes"/>
      <point x="813" y="464"/>
      <point x="852" y="406"/>
      <point x="852" y="342" type="curve" smooth="yes"/>
    </contour>
    <contour>
      <point x="66" y="0" type="line"/>
      <point x="240" y="0" type="line"/>
      <point x="240" y="600" type="line"/>
      <point x="66" y="600" type="line"/>
    </contour>
    <contour>
      <point x="459" y="0" type="line"/>
      <point x="633" y="0" type="line"/>
      <point x="633" y="367" type="line" smooth="yes"/>
      <point x="633" y="528"/>
      <point x="523" y="620"/>
      <point x="401" y="620" type="curve" smooth="yes"/>
      <point x="365" y="620"/>
      <point x="331" y="612"/>
      <point x="300" y="597" type="curve"/>
      <point x="300" y="452" type="line"/>
      <point x="315" y="460"/>
      <point x="332" y="464"/>
      <point x="350" y="464" type="curve" smooth="yes"/>
      <point x="420" y="464"/>
      <point x="459" y="406"/>
      <point x="459" y="342" type="curve" smooth="yes"/>
    </contour>
  </outline>
</glyph>
<glyph name="p" format="2">
  <advance width="740"/>
  <unicode hex="0070"/>
  <anchor x="390" y="0" name="bottom"/>
  <anchor x="390" y="600" name="top"/>
  <outline>
    <contour>
      <point x="403" y="-16" type="curve" smooth="yes"/>
      <point x="570" y="-16"/>
      <point x="704" y="126"/>
      <point x="704" y="300" type="curve" smooth="yes"/>
      <point x="704" y="474"/>
      <point x="570" y="616"/>
      <point x="403" y="616" type="curve" smooth="yes"/>
      <point x="366" y="616"/>
      <point x="331" y="609"/>
      <point x="300" y="597" type="curve"/>
      <point x="300" y="439" type="line"/>
      <point x="324" y="454"/>
      <point x="352" y="463"/>
      <point x="383" y="463" type="curve" smooth="yes"/>
      <point x="471" y="463"/>
      <point x="542" y="390"/>
      <point x="542" y="300" type="curve" smooth="yes"/>
      <point x="542" y="210"/>
      <point x="471" y="137"/>
      <point x="383" y="137" type="curve" smooth="yes"/>
      <point x="352" y="137"/>
      <point x="324" y="146"/>
      <point x="300" y="161" type="curve"/>
      <point x="300" y="3" type="line"/>
      <point x="331" y="-9"/>
      <point x="366" y="-16"/>
    </contour>
    <contour>
      <point x="66" y="-300" type="line"/>
      <point x="240" y="-300" type="line"/>
      <point x="240" y="600" type="line"/>
      <point x="66" y="600" type="line"/>
    </contour>
  </outline>
</glyph>
<glyph name="q" format="2">
  <advance width="740"/>
  <unicode hex="0071"/>
  <outline>
    <contour>
      <point x="336" y="-16" type="curve" smooth="yes"/>
      <point x="378" y="-16"/>
      <point x="416" y="-7"/>
      <point x="450" y="8" type="curve"/>
      <point x="450" y="167" type="line"/>
      <point x="423" y="148"/>
      <point x="392" y="137"/>
      <point x="357" y="137" type="curve" smooth="yes"/>
      <point x="269" y="137"/>
      <point x="198" y="210"/>
      <point x="198" y="300" type="curve" smooth="yes"/>
      <point x="198" y="390"/>
      <point x="269" y="463"/>
      <point x="357" y="463" type="curve" smooth="yes"/>
      <point x="392" y="463"/>
      <point x="423" y="452"/>
      <point x="450" y="433" type="curve"/>
      <point x="450" y="592" type="line"/>
      <point x="416" y="607"/>
      <point x="378" y="616"/>
      <point x="336" y="616" type="curve" smooth="yes"/>
      <point x="170" y="616"/>
      <point x="36" y="474"/>
      <point x="36" y="300" type="curve" smooth="yes"/>
      <point x="36" y="126"/>
      <point x="170" y="-16"/>
    </contour>
    <contour>
      <point x="510" y="-300" type="line"/>
      <point x="674" y="-300" type="line"/>
      <point x="674" y="600" type="line"/>
      <point x="510" y="600" type="line"/>
    </contour>
  </outline>
</glyph>
<glyph name="x" format="2">
  <advance width="640"/>
  <unicode hex="0078"/>
  <outline>
    <contour>
      <point x="434" y="0" type="line"/>
      <point x="628" y="0" type="line"/>
      <point x="221" y="600" type="line"/>
      <point x="29" y="600" type="line"/>
    </contour>
    <contour>
      <point x="12" y="0" type="line"/>
      <point x="202" y="0" type="line"/>
      <point x="281" y="128" type="line"/>
      <point x="188" y="266" type="line"/>
    </contour>
    <contour>
      <point x="451" y="360" type="line"/>
      <point x="611" y="600" type="line"/>
      <point x="421" y="600" type="line"/>
      <point x="357" y="497" type="line"/>
    </contour>
  </outline>
</glyph>
<glyph name="z" format="2">
  <advance width="530"/>
  <unicode hex="007A"/>
  <anchor x="257" y="0" name="bottom"/>
  <anchor x="265" y="300" name="center"/>
  <anchor x="274" y="600" name="top"/>
  <outline>
    <contour>
      <point x="22" y="0" type="line"/>
      <point x="189" y="0" type="line"/>
      <point x="508" y="600" type="line"/>
      <point x="342" y="600" type="line"/>
    </contour>
    <contour>
      <point x="255" y="0" type="line"/>
      <point x="490" y="0" type="line"/>
      <point x="490" y="144" type="line"/>
      <point x="332" y="144" type="line"/>
    </contour>
    <contour>
      <point x="42" y="456" type="line"/>
      <point x="199" y="456" type="line"/>
      <point x="276" y="600" type="line"/>
      <point x="42" y="600" type="line"/>
    </contour>
  </outline>
</glyph>
<glyph name="copyright" format="2">
  <advance width="1260"/>
  <unicode hex="00A9"/>
  <outline>
    <contour>
      <point x="662" y="-191" type="line"/>
      <point x="955" y="-176"/>
      <point x="1188" y="65"/>
      <point x="1188" y="360" type="curve" smooth="yes"/>
      <point x="1188" y="655"/>
      <point x="955" y="896"/>
      <point x="662" y="911" type="curve"/>
      <point x="662" y="779" type="line"/>
      <point x="879" y="764"/>
      <point x="1050" y="582"/>
      <point x="1050" y="360" type="curve" smooth="yes"/>
      <point x="1050" y="138"/>
      <point x="879" y="-44"/>
      <point x="662" y="-59" type="curve"/>
    </contour>
    <contour>
      <point x="598" y="-191" type="curve"/>
      <point x="598" y="-59" type="line"/>
      <point x="381" y="-43"/>
      <point x="210" y="138"/>
      <point x="210" y="360" type="curve" smooth="yes"/>
      <point x="210" y="582"/>
      <point x="381" y="763"/>
      <point x="598" y="779" type="curve"/>
      <point x="598" y="911" type="line"/>
      <point x="305" y="896"/>
      <point x="72" y="655"/>
      <point x="72" y="360" type="curve" smooth="yes"/>
      <point x="72" y="65"/>
      <point x="305" y="-176"/>
    </contour>
    <contour>
      <point x="618" y="79" type="curve"/>
      <point x="618" y="224" type="line"/>
      <point x="557" y="242"/>
      <point x="517" y="297"/>
      <point x="517" y="360" type="curve" smooth="yes"/>
      <point x="517" y="422"/>
      <point x="557" y="478"/>
      <point x="618" y="496" type="curve"/>
      <point x="618" y="640" type="line"/>
      <point x="471" y="622"/>
      <point x="361" y="503"/>
      <point x="361" y="360" type="curve" smooth="yes"/>
      <point x="361" y="216"/>
      <point x="473" y="98"/>
    </contour>
    <contour>
      <point x="678" y="79" type="line"/>
      <point x="744" y="83"/>
      <point x="805" y="106"/>
      <point x="853" y="149" type="curve"/>
      <point x="811" y="308" type="line"/>
      <point x="783" y="264"/>
      <point x="736" y="226"/>
      <point x="678" y="221" type="curve"/>
    </contour>
    <contour>
      <point x="811" y="411" type="curve"/>
      <point x="853" y="572" type="line"/>
      <point x="804" y="615"/>
      <point x="742" y="638"/>
      <point x="678" y="642" type="curve"/>
      <point x="678" y="499" type="line"/>
      <point x="736" y="494"/>
      <point x="783" y="455"/>
    </contour>
  </outline>
</glyph>
<glyph name="ordfeminine" format="2">
  <advance width="480"/>
  <unicode hex="00AA"/>
  <outline>
    <contour>
      <point x="214" y="412" type="curve" smooth="yes"/>
      <point x="228" y="412"/>
      <point x="241" y="414"/>
      <point x="253" y="417" type="curve"/>
      <point x="253" y="522" type="line"/>
      <point x="247" y="521"/>
      <point x="241" y="520"/>
      <point x="234" y="520" type="curve" smooth="yes"/>
      <point x="190" y="520"/>
      <point x="155" y="556"/>
      <point x="155" y="600" type="curve" smooth="yes"/>
      <point x="155" y="644"/>
      <point x="190" y="680"/>
      <point x="234" y="680" type="curve" smooth="yes"/>
      <point x="241" y="680"/>
      <point x="247" y="679"/>
      <point x="253" y="678" type="curve"/>
      <point x="253" y="783" type="line"/>
      <point x="241" y="786"/>
      <point x="228" y="788"/>
      <point x="214" y="788" type="curve" smooth="yes"/>
      <point x="115" y="788"/>
      <point x="34" y="704"/>
      <point x="34" y="600" type="curve" smooth="yes"/>
      <point x="34" y="496"/>
      <point x="114" y="412"/>
    </contour>
    <contour>
      <point x="309" y="420" type="line"/>
      <point x="435" y="420" type="line"/>
      <point x="435" y="780" type="line"/>
      <point x="309" y="780" type="line"/>
    </contour>
  </outline>
</glyph>
<glyph name="AE" format="2">
  <advance width="1040"/>
  <unicode hex="00C6"/>
  <anchor x="879" y="0" name="bottom"/>
  <anchor x="1033" y="0" name="ogonek"/>
  <anchor x="569.105" y="900" name="top"/>
  <anchor x="130" y="720" name="top-vertical"/>
  <anchor x="347.105" y="900" name="topleft"/>
  <outline>
    <contour>
      <point x="627" y="0" type="line"/>
      <point x="801" y="0" type="line"/>
      <point x="492" y="900" type="line"/>
      <point x="396" y="900" type="line"/>
      <point x="352" y="798" type="line"/>
    </contour>
    <contour>
      <point x="12" y="0" type="line"/>
      <point x="187" y="0" type="line"/>
      <point x="392" y="491" type="line"/>
      <point x="316" y="713" type="line"/>
    </contour>
    <contour>
      <point x="320" y="160" type="line"/>
      <point x="626" y="160" type="line"/>
      <point x="574" y="304" type="line"/>
      <point x="380" y="304" type="line"/>
    </contour>
    <contour>
      <point x="861" y="0" type="line"/>
      <point x="1016" y="0" type="line"/>
      <point x="1016" y="162" type="line"/>
      <point x="806" y="162" type="line"/>
    </contour>
    <contour>
      <point x="704" y="456" type="line"/>
      <point x="842" y="456" type="line"/>
      <point x="842" y="606" type="line"/>
      <point x="653" y="606" type="line"/>
    </contour>
    <contour>
      <point x="606" y="744" type="line"/>
      <point x="812" y="744" type="line"/>
      <point x="812" y="900" type="line"/>
      <point x="552" y="900" type="line"/>
    </contour>
  </outline>
</glyph>
<glyph name="Thorn" format="2">
  <advance width="740"/>
  <unicode hex="00DE"/>
  <outline>
    <contour>
      <point x="330" y="169" type="line"/>
      <point x="368" y="169" type="line" smooth="yes"/>
      <point x="620" y="169"/>
      <point x="710" y="339"/>
      <point x="710" y="474" type="curve" smooth="yes"/>
      <point x="710" y="612"/>
      <point x="619" y="780"/>
      <point x="368" y="780" type="curve" smooth="yes"/>
      <point x="330" y="780" type="line"/>
      <point x="330" y="624" type="line"/>
      <point x="358" y="624" type="line" smooth="yes"/>
      <point x="487" y="624"/>
      <point x="530" y="544"/>
      <point x="530" y="474" type="curve" smooth="yes"/>
      <point x="530" y="402"/>
      <point x="486" y="325"/>
      <point x="358" y="325" type="curve" smooth="yes"/>
      <point x="330" y="325" type="line"/>
    </contour>
    <contour>
      <point x="96" y="0" type="line"/>
      <point x="270" y="0" type="line"/>
      <point x="270" y="900" type="line"/>
      <point x="96" y="900" type="line"/>
    </contour>
  </outline>
</glyph>
<glyph name="eng" format="2">
  <advance width="700"/>
  <unicode hex="014B"/>
  <outline>
    <contour>
      <point x="437" y="-312" type="line"/>
      <point x="557" y="-312"/>
      <point x="646" y="-234"/>
      <point x="646" y="-99" type="curve" smooth="yes"/>
      <point x="646" y="359" type="line" smooth="yes"/>
      <point x="646" y="525"/>
      <point x="529" y="620"/>
      <point x="402" y="620" type="curve" smooth="yes"/>
      <point x="365" y="620"/>
      <point x="331" y="612"/>
      <point x="300" y="597" type="curve"/>
      <point x="300" y="451" type="line"/>
      <point x="317" y="460"/>
      <point x="336" y="464"/>
      <point x="356" y="464" type="curve" smooth="yes"/>
      <point x="430" y="464"/>
      <point x="472" y="403"/>
      <point x="472" y="336" type="curve" smooth="yes"/>
      <point x="472" y="-99" type="line" smooth="yes"/>
      <point x="472" y="-151"/>
      <point x="449" y="-173"/>
      <point x="404" y="-173" type="curve"/>
    </contour>
    <contour>
      <point x="66" y="0" type="line"/>
      <point x="240" y="0" type="line"/>
      <point x="240" y="600" type="line"/>
      <point x="66" y="600" type="line"/>
    </contour>
  </outline>
</glyph>
<glyph name="Schwa" format="2">
  <advance width="1050"/>
  <unicode hex="018F"/>
  <outline>
    <contour>
      <point x="488" y="-17" type="curve"/>
      <point x="488" y="151" type="line"/>
      <point x="339" y="166"/>
      <point x="226" y="294"/>
      <point x="226" y="450" type="curve"/>
      <point x="166" y="384" type="line"/>
      <point x="694" y="384" type="line" smooth="yes"/>
      <point x="751" y="384"/>
      <point x="809" y="392"/>
      <point x="866" y="404" type="curve"/>
      <point x="866" y="514" type="line"/>
      <point x="809" y="526"/>
      <point x="751" y="534"/>
      <point x="694" y="534" type="curve" smooth="yes"/>
      <point x="44" y="534" type="line"/>
      <point x="44" y="450" type="line" smooth="yes"/>
      <point x="44" y="201"/>
      <point x="240" y="-2"/>
    </contour>
    <contour>
      <point x="257" y="601" type="line"/>
      <point x="304" y="677"/>
      <point x="382" y="737"/>
      <point x="488" y="747" type="curve"/>
      <point x="488" y="917" type="line"/>
      <point x="378" y="911"/>
      <point x="282" y="871"/>
      <point x="206" y="807" type="curve"/>
    </contour>
    <contour>
      <point x="552" y="-17" type="line"/>
      <point x="800" y="-2"/>
      <point x="996" y="201"/>
      <point x="996" y="450" type="curve" smooth="yes"/>
      <point x="996" y="699"/>
      <point x="800" y="902"/>
      <point x="552" y="917" type="curve"/>
      <point x="552" y="747" type="line"/>
      <point x="701" y="732"/>
      <point x="814" y="606"/>
      <point x="814" y="450" type="curve" smooth="yes"/>
      <point x="814" y="294"/>
      <point x="701" y="166"/>
      <point x="552" y="151" type="curve"/>
    </contour>
  </outline>
</glyph>
<glyph name="endash" format="2">
  <advance width="720"/>
  <unicode hex="2013"/>
  <outline>
    <contour>
      <point x="50" y="228" type="line"/>
      <point x="670" y="228" type="line"/>
      <point x="670" y="372" type="line"/>
      <point x="50" y="372" type="line"/>
    </contour>
  </outline>
</glyph>
<glyph name="approxequal" format="2">
  <advance width="750"/>
  <unicode hex="2248"/>
  <outline>
    <contour>
      <point x="101" y="451" type="line"/>
      <point x="129" y="514"/>
      <point x="171" y="552"/>
      <point x="228" y="552" type="curve" smooth="yes"/>
      <point x="312" y="552"/>
      <point x="393" y="468"/>
      <point x="509" y="468" type="curve" smooth="yes"/>
      <point x="594" y="468"/>
      <point x="670" y="514"/>
      <point x="713" y="592" type="curve"/>
      <point x="642" y="713" type="line"/>
      <point x="614" y="650"/>
      <point x="572" y="612"/>
      <point x="515" y="612" type="curve" smooth="yes"/>
      <point x="431" y="612"/>
      <point x="350" y="696"/>
      <point x="234" y="696" type="curve" smooth="yes"/>
      <point x="149" y="696"/>
      <point x="73" y="650"/>
      <point x="30" y="572" type="curve"/>
    </contour>
    <contour>
      <point x="101" y="187" type="line"/>
      <point x="129" y="250"/>
      <point x="171" y="288"/>
      <point x="228" y="288" type="curve" smooth="yes"/>
      <point x="312" y="288"/>
      <point x="393" y="204"/>
      <point x="509" y="204" type="curve" smooth="yes"/>
      <point x="594" y="204"/>
      <point x="670" y="250"/>
      <point x="713" y="328" type="curve"/>
      <point x="642" y="449" type="line"/>
      <point x="614" y="386"/>
      <point x="572" y="348"/>
      <point x="515" y="348" type="curve" smooth="yes"/>
      <point x="431" y="348"/>
      <point x="350" y="432"/>
      <point x="234" y="432" type="curve" smooth="yes"/>
      <point x="149" y="432"/>
      <point x="73" y="386"/>
      <point x="30" y="308" type="curve"/>
    </contour>
  </outline>
</glyph>
<glyph name="greaterequal" format="2">
  <advance width="750"/>
  <unicode hex="2265"/>
  <outline>
    <contour>
      <point x="72" y="188" type="line"/>
      <point x="726" y="510" type="line"/>
      <point x="72" y="834" type="line"/>
      <point x="72" y="677" type="line"/>
      <point x="312" y="562" type="line" smooth="yes"/>
      <point x="349" y="544"/>
      <point x="392" y="527"/>
      <point x="433" y="511" type="curve"/>
      <point x="392" y="494"/>
      <point x="349" y="477"/>
      <point x="312" y="459" type="curve" smooth="yes"/>
      <point x="72" y="343" type="line"/>
    </contour>
    <contour>
      <point x="72" y="50" type="line"/>
      <point x="678" y="50" type="line"/>
      <point x="678" y="166" type="line"/>
      <point x="72" y="166" type="line"/>
    </contour>
  </outline>
</glyph>
<glyph name="leftanglebracket-math" format="2">
  <advance width="480"/>
  <unicode hex="27E8"/>
  <outline>
    <contour>
      <point x="279" y="-180" type="line"/>
      <point x="450" y="-180" type="line"/>
      <point x="189" y="390" type="line"/>
      <point x="450" y="960" type="line"/>
      <point x="279" y="960" type="line"/>
      <point x="18" y="390" type="line"/>
    </contour>
  </outline>
</glyph>
<glyph name="A.ring" format="2">
  <advance width="820"/>
  <anchor x="410" y="900" name="top"/>
  <outline>
    <contour>
      <point x="627" y="0" type="line"/>
      <point x="808" y="0" type="line"/>
      <point x="425" y="900" type="line"/>
      <point x="395" y="900" type="line"/>
      <point x="322" y="728" type="line"/>
    </contour>
    <contour>
      <point x="12" y="0" type="line"/>
      <point x="187" y="0" type="line"/>
      <point x="374" y="447" type="line"/>
      <point x="289" y="650" type="line"/>
    </contour>
    <contour>
      <point x="320" y="160" type="line"/>
      <point x="626" y="160" type="line"/>
      <point x="566" y="304" type="line"/>
      <point x="380" y="304" type="line"/>
    </contour>
  </outline>
</glyph>
<glyph name="H.bar" format="2">
  <advance width="800"/>
  <anchor x="400" y="0" name="bottom"/>
  <anchor x="400" y="720" name="center"/>
  <anchor x="400" y="900" name="top"/>
  <anchor x="126" y="900" name="topleft"/>
  <outline>
    <contour>
      <point x="530" y="0" type="line"/>
      <point x="704" y="0" type="line"/>
      <point x="704" y="900" type="line"/>
      <point x="530" y="900" type="line"/>
      <point x="530" y="576" type="line"/>
      <point x="330" y="576" type="line"/>
      <point x="330" y="414" type="line"/>
      <point x="530" y="414" type="line"/>
    </contour>
    <contour>
      <point x="96" y="0" type="line"/>
      <point x="270" y="0" type="line"/>
      <point x="270" y="900" type="line"/>
      <point x="96" y="900" type="line"/>
    </contour>
  </outline>
</glyph>
<glyph name="a.ss02" format="2">
  <advance width="670"/>
  <anchor x="333" y="0" name="bottom"/>
  <anchor x="556" y="0" name="ogonek"/>
  <anchor x="342" y="600" name="top"/>
  <outline>
    <contour>
      <point x="262" y="-14" type="curve" smooth="yes"/>
      <point x="315" y="-14"/>
      <point x="365" y="-1"/>
      <point x="406" y="22" type="curve"/>
      <point x="406" y="149" type="line"/>
      <point x="375" y="130"/>
      <point x="336" y="118"/>
      <point x="296" y="118" type="curve" smooth="yes"/>
      <point x="236" y="118"/>
      <point x="198" y="145"/>
      <point x="198" y="187" type="curve" smooth="yes"/>
      <point x="198" y="232"/>
      <point x="243" y="258"/>
      <point x="320" y="258" type="curve" smooth="yes"/>
      <point x="348" y="258"/>
      <point x="378" y="255"/>
      <point x="406" y="249" type="curve"/>
      <point x="406" y="366" type="line"/>
      <point x="372" y="374"/>
      <point x="338" y="378"/>
      <point x="301" y="378" type="curve" smooth="yes"/>
      <point x="142" y="378"/>
      <point x="36" y="299"/>
      <point x="36" y="181" type="curve" smooth="yes"/>
      <point x="36" y="66"/>
      <point x="129" y="-14"/>
    </contour>
    <contour>
      <point x="115" y="407" type="line"/>
      <point x="159" y="441"/>
      <point x="222" y="465"/>
      <point x="284" y="469" type="curve"/>
      <point x="284" y="612" type="line"/>
      <point x="211" y="607"/>
      <point x="139" y="585"/>
      <point x="80" y="549" type="curve"/>
    </contour>
    <contour>
      <point x="466" y="0" type="line"/>
      <point x="616" y="0" type="line"/>
      <point x="616" y="374" type="line" smooth="yes"/>
      <point x="616" y="512"/>
      <point x="510" y="606"/>
      <point x="348" y="614" type="curve"/>
      <point x="348" y="467" type="line"/>
      <point x="420" y="456"/>
      <point x="466" y="413"/>
      <point x="466" y="354" type="curve" smooth="yes"/>
    </contour>
  </outline>
</glyph>
<glyph name="backslash.titl" format="2">
  <advance width="480"/>
  <outline>
    <contour>
      <point x="555" y="-180" type="line"/>
      <point x="15" y="960" type="line"/>
      <point x="-75" y="960" type="line"/>
      <point x="465" y="-180" type="line"/>
    </contour>
  </outline>
</glyph>
<glyph name="dieresiscomb.case" format="2">
  <anchor x="360" y="900" name="_top"/>
  <anchor x="360" y="1149" name="top"/>
  <outline>
    <contour>
      <point x="219" y="984" type="curve" smooth="yes"/>
      <point x="273" y="984"/>
      <point x="315" y="1027"/>
      <point x="315" y="1080" type="curve" smooth="yes"/>
      <point x="315" y="1134"/>
      <point x="273" y="1176"/>
      <point x="219" y="1176" type="curve" smooth="yes"/>
      <point x="166" y="1176"/>
      <point x="123" y="1134"/>
      <point x="123" y="1080" type="curve" smooth="yes"/>
      <point x="123" y="1027"/>
      <point x="166" y="984"/>
    </contour>
    <contour>
      <point x="501" y="984" type="curve" smooth="yes"/>
      <point x="555" y="984"/>
      <point x="597" y="1027"/>
      <point x="597" y="1080" type="curve" smooth="yes"/>
      <point x="597" y="1134"/>
      <point x="555" y="1176"/>
      <point x="501" y="1176" type="curve" smooth="yes"/>
      <point x="448" y="1176"/>
      <point x="405" y="1134"/>
      <point x="405" y="1080" type="curve" smooth="yes"/>
      <point x="405" y="1027"/>
      <point x="448" y="984"/>
    </contour>
  </outline>
</glyph>
<glyph name="gravecomb.case" format="2">
  <anchor x="450" y="900" name="_top"/>
  <anchor x="279" y="1182" name="top"/>
  <outline>
    <contour>
      <point x="378" y="978" type="line"/>
      <point x="540" y="978" type="line"/>
      <point x="387" y="1182" type="line"/>
      <point x="171" y="1182" type="line"/>
    </contour>
  </outline>
</glyph>
<glyph name="greater.titl" format="2">
  <advance width="750"/>
  <outline>
    <contour>
      <point x="90" y="158" type="line"/>
      <point x="690" y="452" type="line"/>
      <point x="90" y="744" type="line"/>
      <point x="90" y="658" type="line"/>
      <point x="390" y="514" type="line" smooth="yes"/>
      <point x="437" y="491"/>
      <point x="492" y="470"/>
      <point x="541" y="451" type="curve"/>
      <point x="492" y="431"/>
      <point x="437" y="410"/>
      <point x="390" y="387" type="curve" smooth="yes"/>
      <point x="90" y="242" type="line"/>
    </contour>
  </outline>
</glyph>
<glyph name="less.titl" format="2">
  <advance width="750"/>
  <outline>
    <contour>
      <point x="660" y="158" type="line"/>
      <point x="660" y="244" type="line"/>
      <point x="360" y="388" type="line" smooth="yes"/>
      <point x="313" y="411"/>
      <point x="258" y="432"/>
      <point x="209" y="451" type="curve"/>
      <point x="258" y="471"/>
      <point x="313" y="492"/>
      <point x="360" y="515" type="curve" smooth="yes"/>
      <point x="660" y="660" type="line"/>
      <point x="660" y="744" type="line"/>
      <point x="60" y="450" type="line"/>
    </contour>
  </outline>
</glyph>
<glyph name="nine.numr" format="2">
  <advance width="480"/>
  <outline>
    <contour>
      <point x="163" y="420" type="line"/>
      <point x="298" y="420" type="line"/>
      <point x="418" y="642" type="line" smooth="yes"/>
      <point x="432" y="669"/>
      <point x="441" y="701"/>
      <point x="441" y="732" type="curve" smooth="yes"/>
      <point x="441" y="827"/>
      <point x="366" y="903"/>
      <point x="268" y="916" type="curve"/>
      <point x="268" y="802" type="line"/>
      <point x="297" y="790"/>
      <point x="315" y="764"/>
      <point x="315" y="734" type="curve" smooth="yes"/>
      <point x="315" y="720"/>
      <point x="311" y="707"/>
      <point x="301" y="688" type="curve" smooth="yes"/>
    </contour>
    <contour>
      <point x="180" y="562" type="curve"/>
      <point x="232" y="658" type="line"/>
      <point x="194" y="662"/>
      <point x="165" y="695"/>
      <point x="165" y="734" type="curve" smooth="yes"/>
      <point x="165" y="764"/>
      <point x="184" y="790"/>
      <point x="212" y="802" type="curve"/>
      <point x="212" y="916" type="line"/>
      <point x="114" y="903"/>
      <point x="39" y="829"/>
      <point x="39" y="734" type="curve" smooth="yes"/>
      <point x="39" y="648"/>
      <point x="100" y="581"/>
    </contour>
  </outline>
</glyph>
<glyph name="ringcomb.case" format="2">
  <anchor x="360" y="900" name="_top"/>
  <outline>
    <contour>
      <point x="191" y="1017" type="curve"/>
      <point x="297" y="1017" type="line"/>
      <point x="308" y="1042"/>
      <point x="332" y="1059"/>
      <point x="360" y="1059" type="curve" smooth="yes"/>
      <point x="387" y="1059"/>
      <point x="412" y="1042"/>
      <point x="423" y="1017" type="curve"/>
      <point x="529" y="1017" type="line"/>
      <point x="516" y="1099"/>
      <point x="445" y="1158"/>
      <point x="360" y="1158" type="curve" smooth="yes"/>
      <point x="274" y="1158"/>
      <point x="204" y="1099"/>
    </contour>
    <contour>
      <point x="360" y="822" type="curve" smooth="yes"/>
      <point x="445" y="822"/>
      <point x="516" y="882"/>
      <point x="529" y="963" type="curve"/>
      <point x="423" y="963" type="line"/>
      <point x="413" y="938"/>
      <point x="388" y="921"/>
      <point x="360" y="921" type="curve" smooth="yes"/>
      <point x="332" y="921"/>
      <point x="307" y="938"/>
      <point x="296" y="963" type="curve"/>
      <point x="191" y="963" type="line"/>
      <point x="204" y="882"/>
      <point x="274" y="822"/>
    </contour>
  </outline>
</glyph>
<glyph name="six.numr" format="2">
  <advance width="480"/>
  <outline>
    <contour>
      <point x="212" y="404" type="curve"/>
      <point x="212" y="518" type="line"/>
      <point x="183" y="530"/>
      <point x="165" y="556"/>
      <point x="165" y="586" type="curve" smooth="yes"/>
      <point x="165" y="600"/>
      <point x="169" y="613"/>
      <point x="179" y="632" type="curve" smooth="yes"/>
      <point x="317" y="900" type="line"/>
      <point x="182" y="900" type="line"/>
      <point x="62" y="678" type="line" smooth="yes"/>
      <point x="48" y="651"/>
      <point x="39" y="619"/>
      <point x="39" y="588" type="curve" smooth="yes"/>
      <point x="39" y="493"/>
      <point x="114" y="417"/>
    </contour>
    <contour>
      <point x="268" y="404" type="line"/>
      <point x="366" y="417"/>
      <point x="441" y="491"/>
      <point x="441" y="586" type="curve" smooth="yes"/>
      <point x="441" y="672"/>
      <point x="380" y="739"/>
      <point x="300" y="758" type="curve"/>
      <point x="248" y="662" type="line"/>
      <point x="286" y="658"/>
      <point x="315" y="625"/>
      <point x="315" y="586" type="curve" smooth="yes"/>
      <point x="315" y="556"/>
      <point x="296" y="530"/>
      <point x="268" y="518" type="curve"/>
    </contour>
  </outline>
</glyph>
<glyph name="strokeshortcomb.t" format="2">
  <anchor x="270" y="300" name="_center"/>
  <outline>
    <contour>
      <point x="80" y="246" type="line"/>
      <point x="460" y="246" type="line"/>
      <point x="460" y="354" type="line"/>
      <point x="80" y="354" type="line"/>
    </contour>
  </outline>
</glyph>
